<mxfile host="app.diagrams.net" modified="2021-09-27T13:33:14.372Z" agent="5.0 (X11; Linux x86_64) AppleWebKit/537.36 (KHTML, like Gecko) Chrome/94.0.4606.61 Safari/537.36 Edg/94.0.992.31" etag="3ifo3vJqF7wjsU7_YdjX" version="15.3.5" type="github">
  <diagram id="ZTjECvZzl0iGwaICb-Zh" name="Page-1">
    <mxGraphModel dx="2249" dy="800" grid="1" gridSize="10" guides="1" tooltips="1" connect="1" arrows="1" fold="1" page="1" pageScale="1" pageWidth="827" pageHeight="1169" math="0" shadow="0">
      <root>
        <mxCell id="0" />
        <mxCell id="1" parent="0" />
        <mxCell id="Xi1mtY-Uhp4fgsUDK6N8-2" value="&lt;div&gt;Dump of assembler code for function main:&lt;/div&gt;&lt;div&gt;&amp;nbsp; &amp;nbsp;0x000000000000114f &amp;lt;+0&amp;gt;:&amp;nbsp; &amp;nbsp; &amp;nbsp;endbr64&amp;nbsp;&lt;/div&gt;&lt;div&gt;&amp;nbsp; &amp;nbsp;0x0000000000001153 &amp;lt;+4&amp;gt;:&amp;nbsp; &amp;nbsp; &amp;nbsp;push&amp;nbsp; &amp;nbsp;%rbp&lt;span&gt;	&lt;span&gt;	&lt;/span&gt;&lt;span&gt;	&lt;/span&gt;&lt;/span&gt;&lt;span&gt;	&lt;/span&gt;&lt;span&gt;	&lt;/span&gt;// rbp = 0 rsp =&amp;nbsp;0x7fffffffda30&lt;/div&gt;&lt;div&gt;&amp;nbsp; &amp;nbsp;0x0000000000001154 &amp;lt;+5&amp;gt;:&amp;nbsp; &amp;nbsp; &amp;nbsp;mov&amp;nbsp; &amp;nbsp; %rsp,%rbp&lt;span&gt;	&lt;/span&gt;// rbp =&amp;nbsp;0x7fffffffda30, rsp =&amp;nbsp;0x7fffffffda30&lt;/div&gt;&lt;div&gt;&amp;nbsp; &amp;nbsp;0x0000000000001157 &amp;lt;+8&amp;gt;:&amp;nbsp; &amp;nbsp; &amp;nbsp;sub&amp;nbsp; &amp;nbsp; $0x10,%rsp // rsp =&amp;nbsp;0x7fffffffda20&lt;/div&gt;&lt;div&gt;&amp;nbsp; &amp;nbsp;0x000000000000115b &amp;lt;+12&amp;gt;:&amp;nbsp; &amp;nbsp; movl&amp;nbsp; &amp;nbsp;$0x7,-0x8(%rbp)&lt;/div&gt;&lt;div&gt;&amp;nbsp; &amp;nbsp;0x0000000000001162 &amp;lt;+19&amp;gt;:&amp;nbsp; &amp;nbsp; movl&amp;nbsp; &amp;nbsp;$0x8,-0x4(%rbp)&lt;/div&gt;&lt;div&gt;&amp;nbsp; &amp;nbsp;0x0000000000001169 &amp;lt;+26&amp;gt;:&amp;nbsp; &amp;nbsp; mov&amp;nbsp; &amp;nbsp; -0x4(%rbp),%eax&lt;/div&gt;&lt;div&gt;&amp;nbsp; &amp;nbsp;0x000000000000116c &amp;lt;+29&amp;gt;:&amp;nbsp; &amp;nbsp; push&amp;nbsp; &amp;nbsp;%rax // 栈增长&lt;/div&gt;&lt;div&gt;&amp;nbsp; &amp;nbsp;0x000000000000116d &amp;lt;+30&amp;gt;:&amp;nbsp; &amp;nbsp; mov&amp;nbsp; &amp;nbsp; -0x8(%rbp),%eax&lt;/div&gt;&lt;div&gt;&amp;nbsp; &amp;nbsp;0x0000000000001170 &amp;lt;+33&amp;gt;:&amp;nbsp; &amp;nbsp; push&amp;nbsp; &amp;nbsp;%rax // 栈增长&lt;/div&gt;&lt;div&gt;&amp;nbsp; &amp;nbsp;0x0000000000001171 &amp;lt;+34&amp;gt;:&amp;nbsp; &amp;nbsp; mov&amp;nbsp; &amp;nbsp; $0x6,%r9d&lt;/div&gt;&lt;div&gt;&amp;nbsp; &amp;nbsp;0x0000000000001177 &amp;lt;+40&amp;gt;:&amp;nbsp; &amp;nbsp; mov&amp;nbsp; &amp;nbsp; $0x5,%r8d&lt;/div&gt;&lt;div&gt;&amp;nbsp; &amp;nbsp;0x000000000000117d &amp;lt;+46&amp;gt;:&amp;nbsp; &amp;nbsp; mov&amp;nbsp; &amp;nbsp; $0x4,%ecx&lt;/div&gt;&lt;div&gt;&amp;nbsp; &amp;nbsp;0x0000000000001182 &amp;lt;+51&amp;gt;:&amp;nbsp; &amp;nbsp; mov&amp;nbsp; &amp;nbsp; $0x3,%edx&lt;/div&gt;&lt;div&gt;&amp;nbsp; &amp;nbsp;0x0000000000001187 &amp;lt;+56&amp;gt;:&amp;nbsp; &amp;nbsp; mov&amp;nbsp; &amp;nbsp; $0x2,%esi&lt;/div&gt;&lt;div&gt;&amp;nbsp; &amp;nbsp;0x000000000000118c &amp;lt;+61&amp;gt;:&amp;nbsp; &amp;nbsp; mov&amp;nbsp; &amp;nbsp; $0x1,%edi&lt;/div&gt;&lt;div&gt;&amp;nbsp; &amp;nbsp;0x0000000000001191 &amp;lt;+66&amp;gt;:&amp;nbsp; &amp;nbsp; callq&amp;nbsp; &lt;span style=&quot;background-color: rgb(234 , 107 , 102)&quot;&gt;0x1129&lt;/span&gt; &amp;lt;callee&amp;gt;&lt;/div&gt;&lt;div&gt;&amp;nbsp; &amp;nbsp;0x0000000000001196 &amp;lt;+71&amp;gt;:&amp;nbsp; &amp;nbsp; add&amp;nbsp; &amp;nbsp; $0x10,%rsp&lt;/div&gt;&lt;div&gt;&amp;nbsp; &amp;nbsp;0x000000000000119a &amp;lt;+75&amp;gt;:&amp;nbsp; &amp;nbsp; mov&amp;nbsp; &amp;nbsp; $0x0,%eax&lt;/div&gt;&lt;div&gt;&amp;nbsp; &amp;nbsp;0x000000000000119f &amp;lt;+80&amp;gt;:&amp;nbsp; &amp;nbsp; leaveq&amp;nbsp;&lt;/div&gt;&lt;div&gt;&amp;nbsp; &amp;nbsp;0x00000000000011a0 &amp;lt;+81&amp;gt;:&amp;nbsp; &amp;nbsp; retq&amp;nbsp; &amp;nbsp;&lt;/div&gt;&lt;div&gt;End of assembler dump.&lt;/div&gt;" style="rounded=0;whiteSpace=wrap;html=1;hachureGap=4;pointerEvents=0;align=left;" vertex="1" parent="1">
          <mxGeometry x="-160" y="40" width="690" height="360" as="geometry" />
        </mxCell>
        <mxCell id="Xi1mtY-Uhp4fgsUDK6N8-3" value="&lt;div&gt;Dump of assembler code for function callee:&lt;/div&gt;&lt;div&gt;&amp;nbsp; &amp;nbsp;&lt;span style=&quot;background-color: rgb(234 , 107 , 102)&quot;&gt;0x0000000000001129&lt;/span&gt; &amp;lt;+0&amp;gt;:&amp;nbsp; &amp;nbsp; &amp;nbsp;endbr64&amp;nbsp;&lt;/div&gt;&lt;div&gt;&amp;nbsp; &amp;nbsp;0x000000000000112d &amp;lt;+4&amp;gt;:&amp;nbsp; &amp;nbsp; &amp;nbsp;push&amp;nbsp; &amp;nbsp;%rbp&lt;span&gt;	&lt;/span&gt;//&amp;nbsp;0x7fffffffda30,&amp;nbsp;0x7fffffffda00伴随着rbp的入栈，rsp也会变化&lt;/div&gt;&lt;div&gt;&amp;nbsp; &amp;nbsp;0x000000000000112e &amp;lt;+5&amp;gt;:&amp;nbsp; &amp;nbsp; &amp;nbsp;mov&amp;nbsp; &amp;nbsp; %rsp,%rbp&lt;/div&gt;&lt;div&gt;&amp;nbsp; &amp;nbsp;0x0000000000001131 &amp;lt;+8&amp;gt;:&amp;nbsp; &amp;nbsp; &amp;nbsp;mov&amp;nbsp; &amp;nbsp; %edi,-0x4(%rbp)&lt;/div&gt;&lt;div&gt;&amp;nbsp; &amp;nbsp;0x0000000000001134 &amp;lt;+11&amp;gt;:&amp;nbsp; &amp;nbsp; mov&amp;nbsp; &amp;nbsp; %esi,-0x8(%rbp)&lt;/div&gt;&lt;div&gt;&amp;nbsp; &amp;nbsp;0x0000000000001137 &amp;lt;+14&amp;gt;:&amp;nbsp; &amp;nbsp; mov&amp;nbsp; &amp;nbsp; %edx,-0xc(%rbp)&lt;/div&gt;&lt;div&gt;&amp;nbsp; &amp;nbsp;0x000000000000113a &amp;lt;+17&amp;gt;:&amp;nbsp; &amp;nbsp; mov&amp;nbsp; &amp;nbsp; %ecx,-0x10(%rbp)&lt;/div&gt;&lt;div&gt;&amp;nbsp; &amp;nbsp;0x000000000000113d &amp;lt;+20&amp;gt;:&amp;nbsp; &amp;nbsp; mov&amp;nbsp; &amp;nbsp; %r8d,-0x14(%rbp)&lt;/div&gt;&lt;div&gt;&amp;nbsp; &amp;nbsp;0x0000000000001141 &amp;lt;+24&amp;gt;:&amp;nbsp; &amp;nbsp; mov&amp;nbsp; &amp;nbsp; %r9d,-0x18(%rbp)&lt;/div&gt;&lt;div&gt;&amp;nbsp; &amp;nbsp;0x0000000000001145 &amp;lt;+28&amp;gt;:&amp;nbsp; &amp;nbsp; mov&amp;nbsp; &amp;nbsp; 0x10(%rbp),%edx&lt;/div&gt;&lt;div&gt;&amp;nbsp; &amp;nbsp;0x0000000000001148 &amp;lt;+31&amp;gt;:&amp;nbsp; &amp;nbsp; mov&amp;nbsp; &amp;nbsp; 0x18(%rbp),%eax&lt;/div&gt;&lt;div&gt;&amp;nbsp; &amp;nbsp;0x000000000000114b &amp;lt;+34&amp;gt;:&amp;nbsp; &amp;nbsp; add&amp;nbsp; &amp;nbsp; %edx,%eax&lt;/div&gt;&lt;div&gt;&amp;nbsp; &amp;nbsp;0x000000000000114d &amp;lt;+36&amp;gt;:&amp;nbsp; &amp;nbsp; pop&amp;nbsp; &amp;nbsp; %rbp&lt;/div&gt;&lt;div&gt;&amp;nbsp; &amp;nbsp;0x000000000000114e &amp;lt;+37&amp;gt;:&amp;nbsp; &amp;nbsp; retq&amp;nbsp; &amp;nbsp;&lt;/div&gt;&lt;div&gt;End of assembler dump.&lt;/div&gt;" style="rounded=0;whiteSpace=wrap;html=1;hachureGap=4;pointerEvents=0;align=left;" vertex="1" parent="1">
          <mxGeometry x="-160" y="480" width="680" height="280" as="geometry" />
        </mxCell>
        <mxCell id="Xi1mtY-Uhp4fgsUDK6N8-4" value="0" style="rounded=0;whiteSpace=wrap;html=1;hachureGap=4;pointerEvents=0;" vertex="1" parent="1">
          <mxGeometry x="560" y="40" width="200" height="40" as="geometry" />
        </mxCell>
        <mxCell id="Xi1mtY-Uhp4fgsUDK6N8-5" value="。。。" style="rounded=0;whiteSpace=wrap;html=1;hachureGap=4;pointerEvents=0;" vertex="1" parent="1">
          <mxGeometry x="560" y="80" width="200" height="40" as="geometry" />
        </mxCell>
        <mxCell id="Xi1mtY-Uhp4fgsUDK6N8-6" value="0x7fffffffda30" style="rounded=0;whiteSpace=wrap;html=1;hachureGap=4;pointerEvents=0;" vertex="1" parent="1">
          <mxGeometry x="560" y="120" width="200" height="40" as="geometry" />
        </mxCell>
        <mxCell id="Xi1mtY-Uhp4fgsUDK6N8-10" value="0x7fffffffda2c" style="rounded=0;whiteSpace=wrap;html=1;hachureGap=4;pointerEvents=0;fillColor=#ffe6cc;strokeColor=#d79b00;" vertex="1" parent="1">
          <mxGeometry x="560" y="280" width="200" height="40" as="geometry" />
        </mxCell>
        <mxCell id="Xi1mtY-Uhp4fgsUDK6N8-11" value="0x7fffffffda28" style="rounded=0;whiteSpace=wrap;html=1;hachureGap=4;pointerEvents=0;fillColor=#dae8fc;strokeColor=#6c8ebf;" vertex="1" parent="1">
          <mxGeometry x="560" y="440" width="200" height="40" as="geometry" />
        </mxCell>
        <mxCell id="Xi1mtY-Uhp4fgsUDK6N8-12" value="0x7fffffffda24" style="rounded=0;whiteSpace=wrap;html=1;hachureGap=4;pointerEvents=0;" vertex="1" parent="1">
          <mxGeometry x="560" y="480" width="200" height="40" as="geometry" />
        </mxCell>
        <mxCell id="Xi1mtY-Uhp4fgsUDK6N8-13" value="0x7fffffffda20" style="rounded=0;whiteSpace=wrap;html=1;hachureGap=4;pointerEvents=0;" vertex="1" parent="1">
          <mxGeometry x="560" y="640" width="200" height="40" as="geometry" />
        </mxCell>
        <mxCell id="Xi1mtY-Uhp4fgsUDK6N8-14" value="0x7fffffffda2d" style="rounded=0;whiteSpace=wrap;html=1;hachureGap=4;pointerEvents=0;fillColor=#ffe6cc;strokeColor=#d79b00;" vertex="1" parent="1">
          <mxGeometry x="560" y="240" width="200" height="40" as="geometry" />
        </mxCell>
        <mxCell id="Xi1mtY-Uhp4fgsUDK6N8-15" value="0x7fffffffda2e" style="rounded=0;whiteSpace=wrap;html=1;hachureGap=4;pointerEvents=0;fillColor=#ffe6cc;strokeColor=#d79b00;" vertex="1" parent="1">
          <mxGeometry x="560" y="200" width="200" height="40" as="geometry" />
        </mxCell>
        <mxCell id="Xi1mtY-Uhp4fgsUDK6N8-16" value="0x7fffffffda2f" style="rounded=0;whiteSpace=wrap;html=1;hachureGap=4;pointerEvents=0;fillColor=#ffe6cc;strokeColor=#d79b00;" vertex="1" parent="1">
          <mxGeometry x="560" y="160" width="200" height="40" as="geometry" />
        </mxCell>
        <mxCell id="Xi1mtY-Uhp4fgsUDK6N8-17" value="0x7fffffffda29" style="rounded=0;whiteSpace=wrap;html=1;hachureGap=4;pointerEvents=0;fillColor=#dae8fc;strokeColor=#6c8ebf;" vertex="1" parent="1">
          <mxGeometry x="560" y="400" width="200" height="40" as="geometry" />
        </mxCell>
        <mxCell id="Xi1mtY-Uhp4fgsUDK6N8-18" value="0x7fffffffda2a" style="rounded=0;whiteSpace=wrap;html=1;hachureGap=4;pointerEvents=0;fillColor=#dae8fc;strokeColor=#6c8ebf;" vertex="1" parent="1">
          <mxGeometry x="560" y="360" width="200" height="40" as="geometry" />
        </mxCell>
        <mxCell id="Xi1mtY-Uhp4fgsUDK6N8-19" value="0x7fffffffda2b" style="rounded=0;whiteSpace=wrap;html=1;hachureGap=4;pointerEvents=0;fillColor=#dae8fc;strokeColor=#6c8ebf;" vertex="1" parent="1">
          <mxGeometry x="560" y="320" width="200" height="40" as="geometry" />
        </mxCell>
        <mxCell id="Xi1mtY-Uhp4fgsUDK6N8-30" value="" style="edgeStyle=none;curved=1;rounded=0;orthogonalLoop=1;jettySize=auto;html=1;dashed=1;endArrow=open;startSize=14;endSize=14;sourcePerimeterSpacing=8;targetPerimeterSpacing=8;entryX=1;entryY=0.5;entryDx=0;entryDy=0;" edge="1" parent="1" source="Xi1mtY-Uhp4fgsUDK6N8-20" target="Xi1mtY-Uhp4fgsUDK6N8-4">
          <mxGeometry relative="1" as="geometry" />
        </mxCell>
        <mxCell id="Xi1mtY-Uhp4fgsUDK6N8-20" value="rbp" style="ellipse;whiteSpace=wrap;html=1;aspect=fixed;hachureGap=4;pointerEvents=0;" vertex="1" parent="1">
          <mxGeometry x="800" y="40" width="40" height="40" as="geometry" />
        </mxCell>
        <mxCell id="Xi1mtY-Uhp4fgsUDK6N8-29" value="" style="edgeStyle=none;curved=1;rounded=0;orthogonalLoop=1;jettySize=auto;html=1;endArrow=open;startSize=14;endSize=14;sourcePerimeterSpacing=8;targetPerimeterSpacing=8;dashed=1;" edge="1" parent="1" source="Xi1mtY-Uhp4fgsUDK6N8-21" target="Xi1mtY-Uhp4fgsUDK6N8-26">
          <mxGeometry relative="1" as="geometry" />
        </mxCell>
        <mxCell id="Xi1mtY-Uhp4fgsUDK6N8-33" value="&lt;font color=&quot;#ea6b66&quot;&gt;mov $rsp, $rbp&lt;/font&gt;" style="edgeLabel;html=1;align=center;verticalAlign=middle;resizable=0;points=[];" vertex="1" connectable="0" parent="Xi1mtY-Uhp4fgsUDK6N8-29">
          <mxGeometry x="-0.3654" relative="1" as="geometry">
            <mxPoint x="-26" as="offset" />
          </mxGeometry>
        </mxCell>
        <mxCell id="Xi1mtY-Uhp4fgsUDK6N8-31" style="edgeStyle=none;curved=1;rounded=0;orthogonalLoop=1;jettySize=auto;html=1;dashed=1;endArrow=open;startSize=14;endSize=14;sourcePerimeterSpacing=8;targetPerimeterSpacing=8;" edge="1" parent="1" source="Xi1mtY-Uhp4fgsUDK6N8-21">
          <mxGeometry relative="1" as="geometry">
            <mxPoint x="760" y="660" as="targetPoint" />
            <Array as="points">
              <mxPoint x="890" y="550" />
            </Array>
          </mxGeometry>
        </mxCell>
        <mxCell id="Xi1mtY-Uhp4fgsUDK6N8-32" value="&lt;font color=&quot;#ea6b66&quot;&gt;sub $0x10, %rsp&lt;/font&gt;" style="edgeLabel;html=1;align=center;verticalAlign=middle;resizable=0;points=[];" vertex="1" connectable="0" parent="Xi1mtY-Uhp4fgsUDK6N8-31">
          <mxGeometry x="-0.2376" y="-13" relative="1" as="geometry">
            <mxPoint as="offset" />
          </mxGeometry>
        </mxCell>
        <mxCell id="Xi1mtY-Uhp4fgsUDK6N8-21" value="rsp" style="ellipse;whiteSpace=wrap;html=1;aspect=fixed;hachureGap=4;pointerEvents=0;" vertex="1" parent="1">
          <mxGeometry x="1000" y="120" width="40" height="40" as="geometry" />
        </mxCell>
        <mxCell id="Xi1mtY-Uhp4fgsUDK6N8-22" value="0x8" style="rounded=0;whiteSpace=wrap;html=1;hachureGap=4;pointerEvents=0;" vertex="1" parent="1">
          <mxGeometry x="800" y="290" width="40" height="20" as="geometry" />
        </mxCell>
        <mxCell id="Xi1mtY-Uhp4fgsUDK6N8-23" value="0x0" style="rounded=0;whiteSpace=wrap;html=1;hachureGap=4;pointerEvents=0;" vertex="1" parent="1">
          <mxGeometry x="800" y="250" width="40" height="20" as="geometry" />
        </mxCell>
        <mxCell id="Xi1mtY-Uhp4fgsUDK6N8-24" value="0x8" style="rounded=0;whiteSpace=wrap;html=1;hachureGap=4;pointerEvents=0;" vertex="1" parent="1">
          <mxGeometry x="800" y="450" width="40" height="20" as="geometry" />
        </mxCell>
        <mxCell id="Xi1mtY-Uhp4fgsUDK6N8-28" style="edgeStyle=none;curved=1;rounded=0;orthogonalLoop=1;jettySize=auto;html=1;entryX=1;entryY=0.5;entryDx=0;entryDy=0;endArrow=open;startSize=14;endSize=14;sourcePerimeterSpacing=8;targetPerimeterSpacing=8;" edge="1" parent="1" source="Xi1mtY-Uhp4fgsUDK6N8-25" target="Xi1mtY-Uhp4fgsUDK6N8-13">
          <mxGeometry relative="1" as="geometry" />
        </mxCell>
        <mxCell id="Xi1mtY-Uhp4fgsUDK6N8-25" value="rsp" style="ellipse;whiteSpace=wrap;html=1;aspect=fixed;hachureGap=4;pointerEvents=0;" vertex="1" parent="1">
          <mxGeometry x="880" y="640" width="40" height="40" as="geometry" />
        </mxCell>
        <mxCell id="Xi1mtY-Uhp4fgsUDK6N8-27" value="" style="edgeStyle=none;curved=1;rounded=0;orthogonalLoop=1;jettySize=auto;html=1;endArrow=open;startSize=14;endSize=14;sourcePerimeterSpacing=8;targetPerimeterSpacing=8;entryX=1;entryY=0.5;entryDx=0;entryDy=0;" edge="1" parent="1" source="Xi1mtY-Uhp4fgsUDK6N8-26" target="Xi1mtY-Uhp4fgsUDK6N8-6">
          <mxGeometry relative="1" as="geometry" />
        </mxCell>
        <mxCell id="Xi1mtY-Uhp4fgsUDK6N8-26" value="rbp" style="ellipse;whiteSpace=wrap;html=1;aspect=fixed;hachureGap=4;pointerEvents=0;" vertex="1" parent="1">
          <mxGeometry x="800" y="120" width="40" height="40" as="geometry" />
        </mxCell>
        <mxCell id="Xi1mtY-Uhp4fgsUDK6N8-35" value="。。。" style="rounded=0;whiteSpace=wrap;html=1;hachureGap=4;pointerEvents=0;" vertex="1" parent="1">
          <mxGeometry x="560" y="680" width="200" height="40" as="geometry" />
        </mxCell>
        <mxCell id="Xi1mtY-Uhp4fgsUDK6N8-36" value="0x7fffffffda23" style="rounded=0;whiteSpace=wrap;html=1;hachureGap=4;pointerEvents=0;" vertex="1" parent="1">
          <mxGeometry x="560" y="520" width="200" height="40" as="geometry" />
        </mxCell>
        <mxCell id="Xi1mtY-Uhp4fgsUDK6N8-37" value="0x7fffffffda22" style="rounded=0;whiteSpace=wrap;html=1;hachureGap=4;pointerEvents=0;" vertex="1" parent="1">
          <mxGeometry x="560" y="560" width="200" height="40" as="geometry" />
        </mxCell>
        <mxCell id="Xi1mtY-Uhp4fgsUDK6N8-38" value="0x7fffffffda21" style="rounded=0;whiteSpace=wrap;html=1;hachureGap=4;pointerEvents=0;" vertex="1" parent="1">
          <mxGeometry x="560" y="600" width="200" height="40" as="geometry" />
        </mxCell>
        <mxCell id="Xi1mtY-Uhp4fgsUDK6N8-39" value="0x7fffffffda18" style="rounded=0;whiteSpace=wrap;html=1;hachureGap=4;pointerEvents=0;" vertex="1" parent="1">
          <mxGeometry x="560" y="720" width="200" height="40" as="geometry" />
        </mxCell>
        <mxCell id="Xi1mtY-Uhp4fgsUDK6N8-40" value="0x7fffffffda10" style="rounded=0;whiteSpace=wrap;html=1;hachureGap=4;pointerEvents=0;" vertex="1" parent="1">
          <mxGeometry x="560" y="800" width="200" height="40" as="geometry" />
        </mxCell>
        <mxCell id="Xi1mtY-Uhp4fgsUDK6N8-41" value="。。。" style="rounded=0;whiteSpace=wrap;html=1;hachureGap=4;pointerEvents=0;" vertex="1" parent="1">
          <mxGeometry x="560" y="760" width="200" height="40" as="geometry" />
        </mxCell>
        <mxCell id="Xi1mtY-Uhp4fgsUDK6N8-44" style="edgeStyle=none;curved=1;rounded=0;orthogonalLoop=1;jettySize=auto;html=1;entryX=1;entryY=0.5;entryDx=0;entryDy=0;dashed=1;endArrow=open;startSize=14;endSize=14;sourcePerimeterSpacing=8;targetPerimeterSpacing=8;" edge="1" parent="1" source="Xi1mtY-Uhp4fgsUDK6N8-42" target="Xi1mtY-Uhp4fgsUDK6N8-39">
          <mxGeometry relative="1" as="geometry" />
        </mxCell>
        <mxCell id="Xi1mtY-Uhp4fgsUDK6N8-42" value="rsp" style="ellipse;whiteSpace=wrap;html=1;aspect=fixed;hachureGap=4;pointerEvents=0;" vertex="1" parent="1">
          <mxGeometry x="880" y="720" width="40" height="40" as="geometry" />
        </mxCell>
        <mxCell id="Xi1mtY-Uhp4fgsUDK6N8-45" style="edgeStyle=none;curved=1;rounded=0;orthogonalLoop=1;jettySize=auto;html=1;entryX=1;entryY=0.5;entryDx=0;entryDy=0;dashed=1;endArrow=open;startSize=14;endSize=14;sourcePerimeterSpacing=8;targetPerimeterSpacing=8;" edge="1" parent="1" source="Xi1mtY-Uhp4fgsUDK6N8-43" target="Xi1mtY-Uhp4fgsUDK6N8-40">
          <mxGeometry relative="1" as="geometry" />
        </mxCell>
        <mxCell id="Xi1mtY-Uhp4fgsUDK6N8-43" value="rsp" style="ellipse;whiteSpace=wrap;html=1;aspect=fixed;hachureGap=4;pointerEvents=0;" vertex="1" parent="1">
          <mxGeometry x="880" y="800" width="40" height="40" as="geometry" />
        </mxCell>
        <mxCell id="Xi1mtY-Uhp4fgsUDK6N8-46" value="0x7fffffffda08" style="rounded=0;whiteSpace=wrap;html=1;hachureGap=4;pointerEvents=0;" vertex="1" parent="1">
          <mxGeometry x="560" y="880" width="200" height="40" as="geometry" />
        </mxCell>
        <mxCell id="Xi1mtY-Uhp4fgsUDK6N8-47" value="。。。" style="rounded=0;whiteSpace=wrap;html=1;hachureGap=4;pointerEvents=0;" vertex="1" parent="1">
          <mxGeometry x="560" y="840" width="200" height="40" as="geometry" />
        </mxCell>
        <mxCell id="Xi1mtY-Uhp4fgsUDK6N8-48" value="0x7fffffffda00" style="rounded=0;whiteSpace=wrap;html=1;hachureGap=4;pointerEvents=0;" vertex="1" parent="1">
          <mxGeometry x="560" y="960" width="200" height="40" as="geometry" />
        </mxCell>
      </root>
    </mxGraphModel>
  </diagram>
</mxfile>
